<svg width="512" height="512" viewBox="0 0 512 512" fill="none" xmlns="http://www.w3.org/2000/svg">
<path d="M260.378 13.9536C262.905 15.9575 262.905 15.9575 265.315 18.5161C266.178 19.4211 267.04 20.326 267.929 21.2583C269.989 23.5256 272.01 25.815 274.003 28.1411C277.484 32.1752 281.273 35.5654 285.378 38.9536C285.883 39.3816 286.388 39.8096 286.908 40.2505C323.695 71.3733 369.87 86.157 417.765 85.9614C419.15 85.9562 419.15 85.9562 420.564 85.9509C425.261 85.9274 429.957 85.878 434.653 85.7927C436.399 85.7721 438.144 85.7515 439.89 85.731C440.701 85.7091 441.513 85.6872 442.349 85.6647C447.953 85.6156 447.953 85.6156 450.05 87.2854C452.694 90.6068 452.505 93.8395 452.512 97.9099C452.516 99.1554 452.52 100.401 452.524 101.684C452.524 103.068 452.524 104.451 452.523 105.835C452.526 107.291 452.529 108.746 452.533 110.202C452.542 114.166 452.544 118.131 452.545 122.095C452.546 124.582 452.548 127.07 452.551 129.558C452.56 138.269 452.564 146.981 452.563 155.693C452.563 163.753 452.573 171.812 452.589 179.871C452.602 186.826 452.607 193.781 452.607 200.736C452.606 204.873 452.609 209.01 452.62 213.147C452.736 261.354 452.737 261.354 448.253 282.954C448.039 284.01 447.825 285.067 447.605 286.155C438.83 327.586 419.777 365.739 392.378 397.954C391.581 398.935 390.785 399.916 389.964 400.926C383.36 408.971 376.151 416.395 368.815 423.766C368.091 424.498 368.091 424.498 367.353 425.245C361.444 431.203 355.349 436.778 348.792 442.021C346.872 443.558 345.003 445.118 343.163 446.747C325.325 462.434 281.131 500.242 255.55 498.793C251.693 497.772 248.204 496.249 244.628 494.516C243.888 494.161 243.147 493.806 242.385 493.441C211.7 478.522 181.966 459.413 156.854 436.219C154.792 434.332 152.7 432.499 150.585 430.672C146.38 427.001 142.384 423.152 138.44 419.204C137.741 418.503 137.041 417.803 136.321 417.082C131.728 412.434 127.459 407.701 123.429 402.555C122.033 400.785 120.59 399.051 119.108 397.352C89.3962 363.272 70.059 319.013 63.0653 274.579C62.8261 273.066 62.8261 273.066 62.5821 271.524C60.5276 257.455 60.2272 243.255 60.2167 229.058C60.212 227.556 60.207 226.055 60.2016 224.553C60.1887 220.535 60.1821 216.517 60.1776 212.499C60.1747 209.983 60.1706 207.468 60.1661 204.952C60.1525 197.061 60.1428 189.17 60.1389 181.279C60.1344 172.2 60.1167 163.121 60.0879 154.042C60.0663 146.993 60.0562 139.944 60.0549 132.895C60.0538 128.696 60.0479 124.497 60.0301 120.298C60.0136 116.361 60.0114 112.424 60.0202 108.488C60.021 107.045 60.0166 105.602 60.0067 104.159C59.994 102.189 60.0017 100.219 60.0103 98.249C60.0088 97.1474 60.0074 96.0458 60.0059 94.9108C60.4652 91.2589 61.7567 88.5747 64.3778 85.9536C65.7195 85.8763 67.0653 85.8677 68.4091 85.8877C69.2702 85.8973 70.1313 85.9069 71.0184 85.9168C71.962 85.9315 72.9056 85.9463 73.8778 85.9614C75.8881 85.9818 77.8985 86.0012 79.9088 86.0195C80.9658 86.03 82.0229 86.0405 83.1119 86.0512C115.416 86.3223 146.329 83.9094 176.378 70.9536C177.059 70.6626 177.739 70.3716 178.441 70.0718C198.429 61.405 215.802 49.3946 231.624 34.4966C233.557 32.712 235.476 31.0322 237.511 29.3755C239.904 27.3537 241.84 25.4253 243.815 23.0161C246.1 20.3688 248.4 17.797 250.94 15.3911C251.716 14.6467 251.716 14.6467 252.507 13.8872C255.455 12.4161 257.279 13.0147 260.378 13.9536ZM253.948 34.1878C253.4 34.7589 252.853 35.33 252.288 35.9185C251.368 36.8645 251.368 36.8645 250.429 37.8296C249.444 38.8501 249.444 38.8501 248.44 39.8911C242.395 46.0375 236.248 51.7253 229.378 56.9536C228.843 57.3703 228.308 57.787 227.757 58.2163C188.326 88.8622 141.477 101.285 92.0653 101.016C90.4384 101.011 88.8114 101.007 87.1844 101.002C83.2489 100.992 79.3133 100.974 75.3778 100.954C75.3073 119.932 75.2546 138.91 75.2224 157.888C75.207 166.703 75.1861 175.518 75.1515 184.333C75.1213 192.029 75.1022 199.725 75.0955 207.421C75.0917 211.485 75.0828 215.547 75.0606 219.61C74.6747 293.206 98.3345 354.044 148.565 407.829C149.219 408.53 149.872 409.232 150.545 409.955C154.375 414.012 158.345 417.782 162.581 421.413C164.793 423.31 166.925 425.288 169.065 427.266C191.567 447.511 218.056 463.664 244.797 477.59C246.433 478.455 248.054 479.35 249.65 480.286C252.787 482.065 254.697 483.066 258.319 482.469C259.329 481.969 260.338 481.469 261.378 480.954C262.027 480.659 262.677 480.365 263.346 480.061C288.207 468.701 311.414 453.446 332.378 435.954C333.878 434.712 333.878 434.712 335.409 433.446C349.627 421.604 363.387 409.075 375.378 394.954C376.187 394.033 376.997 393.113 377.831 392.165C389.191 379.156 398.895 364.984 407.378 349.954C407.75 349.3 408.122 348.646 408.506 347.972C420.12 327.392 428.131 305.148 433.128 282.079C433.327 281.184 433.525 280.289 433.73 279.367C437.947 258.784 437.657 237.84 437.581 216.939C437.568 212.847 437.567 208.755 437.565 204.663C437.558 196.95 437.542 189.237 437.522 181.525C437.499 172.729 437.488 163.933 437.478 155.137C437.458 137.076 437.423 119.015 437.378 100.954C436.629 100.955 435.88 100.957 435.109 100.958C431.686 100.965 428.264 100.968 424.841 100.972C423.664 100.975 422.486 100.977 421.272 100.98C413.544 100.986 405.893 100.866 398.19 100.204C396.601 100.072 396.601 100.072 394.979 99.937C342.221 95.1784 295.407 72.7477 258.901 34.3169C256.872 32.5014 256.027 32.3931 253.948 34.1878Z" fill="#00AB8D"/>
<path d="M258.394 71.4688C262.077 72.3689 264.446 74.6951 267.19 77.2036C275.672 84.4424 284.784 90.298 294.378 95.9536C295.071 96.3621 295.764 96.7706 296.477 97.1914C327.662 115.261 363.89 125.177 399.781 127.095C400.592 127.152 401.402 127.208 402.237 127.266C402.943 127.304 403.649 127.341 404.377 127.379C407.291 128.216 408.474 129.614 410.378 131.954C410.886 134.761 410.886 134.761 410.895 138.036C410.908 139.264 410.921 140.492 410.934 141.757C410.926 143.093 410.918 144.43 410.909 145.766C410.912 147.141 410.916 148.516 410.921 149.89C410.927 152.769 410.918 155.647 410.899 158.525C410.877 162.211 410.89 165.895 410.914 169.581C410.928 172.419 410.923 175.257 410.913 178.095C410.91 179.453 410.914 180.812 410.923 182.171C410.933 184.071 410.915 185.971 410.895 187.872C410.892 188.952 410.889 190.033 410.886 191.146C410.252 194.646 409.187 195.827 406.378 197.954C402.878 198.516 402.878 198.516 399.378 197.954C396.716 195.761 395.522 193.97 395.034 190.529C394.914 187.448 394.929 184.392 394.987 181.309C394.993 180.184 394.999 179.059 395.004 177.9C395.027 174.313 395.077 170.728 395.128 167.141C395.148 164.707 395.166 162.273 395.182 159.838C395.227 153.876 395.293 147.915 395.378 141.954C393.726 141.876 393.726 141.876 392.041 141.796C383.758 141.377 375.657 140.802 367.503 139.204C366.581 139.028 365.658 138.853 364.708 138.672C324.965 130.882 289.486 114.547 257.378 89.9536C254.695 91.2282 252.322 92.6209 249.936 94.3872C212.895 121.408 169.502 139.115 123.521 142.501C122.366 142.587 121.211 142.673 120.021 142.762C119.149 142.825 118.276 142.888 117.378 142.954C117.439 157.211 117.517 171.469 117.614 185.726C117.658 192.349 117.697 198.971 117.724 205.593C117.75 212 117.791 218.406 117.841 224.812C117.858 227.24 117.869 229.669 117.875 232.097C118.045 291.506 141.85 341.364 183.44 383.266C189.461 389.242 195.663 394.762 202.378 399.954C203.68 401.005 204.981 402.059 206.28 403.114C217.006 411.739 228.229 419.283 239.962 426.469C242.076 427.768 244.173 429.089 246.265 430.422C247.313 431.072 248.361 431.722 249.44 432.391C250.726 433.194 250.726 433.194 252.038 434.012C255.102 435.245 256.249 435.031 259.378 433.954C262.223 432.622 264.956 431.123 267.69 429.579C268.877 428.913 268.877 428.913 270.088 428.233C291.428 416.052 310.398 400.281 328.378 383.641C328.989 383.079 329.6 382.516 330.229 381.937C333.781 378.614 336.957 375.186 339.957 371.354C341.378 369.954 341.378 369.954 345.003 368.891C348.224 368.951 349.807 369.075 352.378 370.954C354.008 374.214 353.845 376.332 353.378 379.954C351.51 383.041 348.927 385.421 346.378 387.954C345.237 389.128 344.098 390.304 342.96 391.481C336.605 397.997 330.182 404.233 323.018 409.868C320.255 412.051 317.606 414.34 314.94 416.641C300.895 428.315 285.596 438.016 269.571 446.724C268.189 447.499 266.828 448.311 265.501 449.175C261.189 451.955 257.399 453.022 252.378 451.954C248.945 450.566 245.851 448.749 242.69 446.829C241.785 446.294 240.879 445.759 239.946 445.208C225.144 436.359 210.81 426.777 197.378 415.954C196.463 415.23 195.547 414.507 194.604 413.762C179.13 401.37 164.655 387.526 152.378 371.954C151.747 371.202 151.117 370.451 150.468 369.676C115.664 327.869 101.892 278.734 101.909 225.258C101.905 223.247 101.898 221.236 101.892 219.224C101.873 212.946 101.87 206.668 101.877 200.39C101.884 193.93 101.86 187.472 101.824 181.013C101.793 175.428 101.781 169.843 101.785 164.257C101.787 160.937 101.78 157.618 101.757 154.298C101.735 150.617 101.745 146.938 101.763 143.258C101.749 142.166 101.736 141.074 101.722 139.949C101.805 132.593 101.805 132.593 104.772 129.283C107.424 127.93 109.135 127.406 112.089 127.266C112.992 127.21 113.895 127.153 114.825 127.095C115.791 127.049 116.757 127.002 117.753 126.954C164.185 123.724 212.826 106.764 247.766 75.1531C251.233 72.195 253.939 71.1819 258.394 71.4688Z" fill="#00AB8D"/>
<path d="M390.878 300.079C394.378 300.954 394.378 300.954 396.378 302.516C398.137 306.804 397.058 311.115 395.496 315.337C394.39 317.846 393.216 320.307 392.003 322.766C391.603 323.611 391.204 324.456 390.792 325.327C386.525 334.163 386.525 334.163 382.003 335.829C378.606 335.99 377.092 334.914 374.378 332.954C373.378 331.954 373.378 331.954 372.878 328.766C372.927 321.929 377.216 315.814 380.378 309.954C381.135 308.374 381.886 306.791 382.628 305.204C384.9 300.983 386.032 299.906 390.878 300.079Z" fill="#00AB8D"/>
<path d="M402.878 231.391C406.378 231.954 406.378 231.954 408.573 233.45C411.203 237.098 410.899 240.193 410.753 244.579C410.736 245.382 410.72 246.186 410.703 247.014C410.259 262.125 410.259 262.125 406.128 266.141C402.708 267.151 400.767 267.059 397.378 265.954C395.192 263.719 394.431 262.411 394.066 259.284C394.171 256.026 394.283 252.772 394.44 249.516C394.468 248.384 394.496 247.251 394.524 246.084C394.869 237.853 394.869 237.853 397.218 233.704C399.378 231.954 399.378 231.954 402.878 231.391Z" fill="#00AB8D"/>
<path d="M256 182C296.869 182 330 215.131 330 256C330 295.527 299.009 327.814 260 329.892V279.666C271.351 277.762 280 267.892 280 256C280 242.745 269.255 232 256 232C242.745 232 232 242.745 232 256C232 267.54 240.145 277.176 251 279.477V329.832C212.463 327.261 182 295.189 182 256C182 215.131 215.131 182 256 182Z" fill="#00AB8D"/>
</svg>
